<svg xmlns="http://www.w3.org/2000/svg" width="1024" height="1024" viewBox="0 0 1024 1024">
  <rect width="1024" height="1024" fill="#296767"/>
  <g transform="translate(112 112) scale(4)" fill="#d9fffe">
    <path d="m185.2 106.2c-1.38-0.66-1.98-0.93-2.91-1.29 2.31-3.16 3.11-4.01 6.52-4.98 2.22-0.65 1.52-3.85-0.8-3.34-4.19 0.45-5.94 3.18-7.84 7.04-7.14-1.6-16.44-0.84-19.35 7.33-0.54 0.35-0.44 0.27-0.7 0.89-2.35 0.35-6.17 0.86-9.02-0.05-0.77-2.78 1.37-9.79 2.85-11.8 10.06-0.8 18.57-3.43 25.71-10.62 4.37-4.34 8.35-7.22 7.26-12.58-3.85-13.03-10.07-26.79-22.86-34.66-2.04-1.46-4.92-2.48-5.42-2.83-0.87-8.12-4.48-15.3-10.03-18.45-1.64-0.71-2.45-0.25-3.32 0.56-3.36 3.15-5.35 9.31-6.22 14.49-3.31-4.46-5.25-6.94-9.56-11.47-3.26-3.78-7.44-2.71-9.75 1.39-5.19 8.23-4.58 17.04-0.82 24.13-5.71 6.76-6.68 16.05-9.79 20.97-3.36 4.97-6.87 7.74-11.5 10.13 9.45-23.09 5.13-45.64-10.68-60.2-10.05-9.34-22.49-12.91-34.48-12.91-25.97 0-47.92 20.16-47.92 44.97 0 10.19 5.08 18.12 13.54 26.24 2.41 2.11 4.82 1.25 3.75-1.58-2.61-7.08 3.45-17.47 11.96-19.58 6.42-0.66 9.98 3.76 9.98 9.73 0 6.65-4.62 14.62-8.71 21.55-6.94 10.93-12.43 21.33-12.43 39.35 0 25.12 16.26 50.38 45.3 50.23 4.34-0.07 7.5-0.14 10.61 2.58-1.02 5.52 2.78 9.81 7.86 9.81l48.37 0.51c5.08-0.05 5.42-2.8 5.29-5.43l20.9-0.79c5.44-0.46 2.87-7.42-1.24-10.77-3.95-3.24-9.52-4.09-14.43-4.21 6.49-8.28 11.01-16.81 6.9-27.59-1.34-4.01-3.21-6.94-4.3-7.79-0.3-2.26 0.57-2.16 5.47-4.52 1.61-0.67 3.92-1.47 4.22-0.21 0.87 6.03 5.12 9.66 9.12 14.44 0.67 0.75 1.44 0 2.75-0.23 12.13-2.52 17.54-6.46 22.29-19.6 2.88-1.83 4.39-4 3.69-8.42-1.11-5.63-5.81-8.51-10.26-10.44zm-37.25-79.77c4.22 2.73 6.87 7.8 7.34 12.77-4.49-1.07-6.1-1.53-11.34-1.78 0.25-4.36 1.12-7.85 4-10.99zm1.81 120.2c1.51 10.08-7.26 21.7-14 27.11-1.06 1.17-0.4 3.43 1.81 3.02 6.07-1.12 17.86-2.05 22.18 2.92 0.5 0.71 0.6 1.47 0.6 1.47l-20.47 0.31c-3.06-3.92-6.91-5.37-11.86-5.97 11.05-8.44 15.27-21.09 18.89-36.55 1.54 0.91 2.41 4.21 2.85 7.69zm21.4-6.78-1.81 0.35c-3.12-3.93-5.78-5.81-6.92-10 6.52 0 10.13-3.92 9.73-10.45l16.19 5.44c-2.95 7.98-6.28 12.99-17.19 14.66zm19.5-19.34-26.4-11.62c2.47-5.02 12.96-3.49 19.09-0.35 5.27 2.67 8.95 6.07 7.31 11.97zm-6.27-40.5c-1.51-0.51-6.89-1.11-6.23 2.33 0.3 1.51 1.1 3.53 2.61 4.6-3.79 4.41-7.4 5.97-13.59 2.2-1.38-0.76-3.02 0-2.15 1.13 0.77 1.08 2.15 2.19 3.42 3.31-11.48 3.94-25.4 2.64-33.75-4.74-2.75-2.16-4.52-5.19-5.39-4.68-1.31 0.35-0.64 2.52 0.97 4.58 5.48 6.81 12.97 9.23 19.48 10.25-1.81 3.15-2.89 7.07-3.09 10.81-4.82-0.76-7.53-4.69-10.28-7.86-1.54-1.35-2.64-0.23-2.14 2.08 2.51 7.29 10.51 12.17 19 11.92 4.85-0.1 5.62-1.33 9.24-1.08 4.65 0.41 6.56 2.98 6.26 5.96-0.5 4.17-3.49 4.72-8.67 3.22-3.51-0.86-12.97 4.72-22.56 5.43-10.76 0.71-17.28-4.48-22.56-14.86-1.1-2.17-4.99-2.62-4.59 0.82 0.97 6.87 10.5 17.66 24.33 18.12 3.15 0.1 5.32-0.3 8.65-0.91-1.07 14.6-4.55 32.13-19.62 41.66-1.64 0.81-3.28 0.66-4.63 0.35 7.66-8.91 9.87-20.51 6.95-29.09-3.82-11.72-14.97-20.72-26.59-20.37-4.75 0.1-10.13 2.46-10.6 5.34-0.5 1.46 0.81 1.2 1.31 0.9 4.59-2.01 8.34-3.02 13.29-2.57 10.96 1.37 19.26 12.1 20.2 22.48 0.87 10.4-5.66 21.23-15.61 26.81-1.95 1.07-1.75 3.59 0.6 3.19 5.54-1.66 9.8-2.57 18.26-2.47 5.28 0.45 9.03 3.8 9.03 7.29 0 1.41-0.77 1.51-2.05 1.51l-47.04-0.5c-3.55 0-4.02-3.25-3.09-5.51 1.11-2.67 2.01-5.72-0.1-5.62-1.1 0-1.4 1.61-2.61 2.83-11.83-8.82-20.73-22.9-20.73-39.63 0-18.17 10.25-39.3 31.54-51.58 8.71-4.56 17.4-8.91 23.24-18 1.95-4.57 3.39-10.75 6.21-15.97 0.97 0.45 2.71 3.23 4.12 3.78 2.04 0.76 3.04-0.96 2.57-2.77-0.97-3.68-5.95-7.37-6.29-15.76 0-4.87 2.15-10.29 4.5-12 5.71 3.92 12.4 13.11 12.53 19.78 0.1 2.52 2.98 1.92 2.88-0.15 0-1.71-0.1-3.12-0.4-5.59 10.38 0.2 18.83 2.57 25.98 9.14 9.12 7.63 13.3 18.7 17.19 29.89z"/>
    <path d="m127.8 32.7c-1.16-0.91-1.73 0.81-0.73 1.82 5.18 5.67 5.38 10.99 3.67 17.88-0.5 2.26 1.94 2.26 2.54 0.45 2.85-7.94 1.24-14.27-5.48-20.15z"/>
    <path d="m140.8 66.82c-2.65 2.16-2.45 4.13-0.6 3.27 3.91-1.81 9.26-4.12 14.81 0.6 2.41 2.07 3.08 2.62 3.58 1.92 1.34-1.46-1.17-5.39-5.39-7.1-4.26-1.86-9.09-1.11-12.4 1.31z"/>
    <path d="m27.18 138.2c3.11 5.63 8.07 9.06 12.29 11.43-6.66-5.05-12.29-11.82-12.29-22.6 0-13.71 7.14-25.89 13.46-35.93 5.05-7.93 7.07-14.9 6.97-20.81-0.67-8.28-7.2-16.36-16.26-15.9-8.16 0.6-14.64 9.41-15.34 19.13-0.1 0.35-0.1 0.35-0.4 0-4.63-5.63-7.38-10.35-7.38-20.09 0.5-18.77 18.14-42.35 44.59-42.35 26.1 0 46.27 18.95 46.27 45.28 0 9.85-3.31 18.93-7.77 27.06-19.14 11.13-34.75 30.41-34.75 56.35 0 12.54 4.35 25.08 12.81 35.46-19.27-0.45-35.17-13.65-42.2-37.03z"/>
  </g>
</svg>
